<svg width="28" height="24" viewBox="0 0 28 24" fill="none" xmlns="http://www.w3.org/2000/svg">
<path fill-rule="evenodd" clip-rule="evenodd" d="M9 4.5L10.4 1.4C10.8 0.5 11.5 0 12.5 0H15.5C16.5 0 17.2 0.5 17.6 1.4L19 4.5H23C25.8 4.5 28 6.7 28 9.5V18.5C28 21.3 25.8 23.5 23 23.5H5C2.2 23.5 0 21.3 0 18.5V9.5C0 6.7 2.2 4.5 5 4.5H9ZM8 14.5C8 17.8 10.7 20.5 14 20.5C17.3 20.5 20 17.8 20 14.5C20 11.2 17.3 8.5 14 8.5C10.7 8.5 8 11.2 8 14.5ZM11.2 14.5C11.2 16 12.5 17.3 14 17.3C15.5 17.3 16.8 16 16.8 14.5C16.8 13 15.5 11.7 14 11.7C12.5 11.7 11.2 13 11.2 14.5Z" fill="#221100"/>
</svg>
